<svg width="518" height="228" viewBox="0 0 518 228" fill="none" xmlns="http://www.w3.org/2000/svg">
<rect width="518" height="228" fill="#EE4266"/>
<path d="M253.629 45.6115C253.893 45.6797 254.144 45.7838 254.39 45.9024C254.458 45.9348 254.458 45.9348 254.528 45.9679C255.659 46.5162 256.672 47.2242 257.584 48.1196C257.719 48.2511 257.857 48.3769 257.996 48.5026C258.278 48.7605 258.533 49.0385 258.786 49.3265C258.828 49.374 258.871 49.4215 258.914 49.4705C259.153 49.7398 259.382 50.0141 259.604 50.2991C259.749 50.1364 259.894 49.9736 260.04 49.8106C260.082 49.7629 260.125 49.7152 260.169 49.666C260.426 49.3769 260.677 49.0848 260.917 48.7793C260.999 48.694 260.999 48.694 261.131 48.694C261.153 48.6249 261.175 48.5558 261.198 48.4846C261.293 48.3818 261.293 48.3818 261.418 48.2709C261.466 48.2281 261.514 48.1852 261.564 48.1411C261.619 48.0933 261.673 48.0454 261.729 47.9961C261.817 47.9157 261.817 47.9157 261.907 47.8336C262.908 46.9293 264.254 45.8662 265.582 45.6233C265.889 45.6505 266.022 45.7728 266.235 46.0008C266.295 46.0642 266.354 46.1276 266.416 46.1929C266.478 46.2604 266.541 46.3278 266.603 46.3953C266.695 46.4927 266.695 46.4927 266.788 46.592C267.129 46.9563 267.457 47.3287 267.773 47.7169C267.843 47.8001 267.912 47.8831 267.982 47.9661C268.432 48.5057 268.865 49.0553 269.282 49.624C269.365 49.7371 269.449 49.8496 269.533 49.9619C270.584 51.3786 271.563 52.8789 272.421 54.4332C272.492 54.5605 272.565 54.6864 272.638 54.8123C273.911 57.0155 274.903 59.3712 275.678 61.8144C275.699 61.8828 275.721 61.9511 275.743 62.0215C276.262 63.6759 276.641 65.3938 276.873 67.1184C276.883 67.1908 276.893 67.2632 276.903 67.3378C277.212 69.6945 277.2 72.1628 276.873 74.5161C276.856 74.6445 276.856 74.6445 276.838 74.7756C276.766 75.2948 276.689 75.813 276.607 76.3306C276.653 76.305 276.698 76.2794 276.745 76.2531C279.977 74.4362 283.438 73.2918 287.102 72.9807C287.2 72.9718 287.2 72.9718 287.301 72.9626C291.186 72.6464 295.098 73.1291 298.858 74.1671C298.977 74.1996 298.977 74.1996 299.098 74.2327C300.991 74.7591 302.841 75.4435 304.644 76.2454C304.823 76.3246 305.003 76.4018 305.183 76.4781C305.891 76.7798 306.564 77.1309 307.234 77.5157C307.364 77.5887 307.494 77.658 307.626 77.7264C307.733 80.2656 306.818 82.6674 305.575 84.8054C305.45 85.0222 305.34 85.2441 305.235 85.473C305.273 85.4836 305.312 85.4941 305.352 85.505C305.829 85.6447 306.264 85.8468 306.709 86.0749C306.782 86.1121 306.854 86.1493 306.93 86.1876C308.062 86.7716 309.047 87.487 310.017 88.3344C310.056 88.3666 310.095 88.3988 310.135 88.432C310.421 88.6696 310.647 88.9494 310.881 89.2416C310.93 89.2998 310.98 89.358 311.031 89.418C311.08 89.4778 311.129 89.5377 311.179 89.5993C311.225 89.6542 311.271 89.7091 311.319 89.7656C311.443 89.9972 311.402 90.1026 311.346 90.3583C311.273 90.5405 311.273 90.5405 311.183 90.7244C311.149 90.7934 311.115 90.8625 311.08 90.9337C311.025 91.044 311.024 91.044 310.968 91.1565C310.929 91.2339 310.89 91.3114 310.85 91.3911C309.896 93.2714 308.77 95.1094 307.521 96.7904C307.417 96.9316 307.315 97.074 307.212 97.2167C306.77 97.8325 306.313 98.4295 305.833 99.0121C305.76 99.101 305.687 99.1899 305.614 99.2788C305.432 99.5001 305.25 99.7208 305.067 99.9411C304.978 100.049 304.889 100.157 304.801 100.265C304.754 100.322 304.706 100.379 304.658 100.438C304.618 100.487 304.578 100.536 304.537 100.586C304.438 100.687 304.438 100.687 304.305 100.687C304.289 100.727 304.272 100.767 304.255 100.808C304.158 100.993 304.044 101.117 303.902 101.266C303.848 101.323 303.794 101.38 303.738 101.438C303.681 101.497 303.624 101.556 303.566 101.616C303.511 101.674 303.456 101.732 303.399 101.792C303.106 102.097 302.808 102.392 302.495 102.675C302.339 102.817 302.189 102.965 302.038 103.112C301.653 103.482 301.247 103.819 300.834 104.153C300.724 104.241 300.615 104.331 300.507 104.421C296.599 107.624 291.928 109.854 286.969 110.388C287.036 110.456 287.036 110.456 287.103 110.527C287.267 110.696 287.43 110.866 287.593 111.036C287.664 111.11 287.735 111.183 287.806 111.257C287.908 111.362 288.009 111.468 288.111 111.574C288.172 111.637 288.233 111.701 288.296 111.766C288.43 111.923 288.43 111.923 288.43 112.063C288.474 112.063 288.518 112.063 288.563 112.063C288.659 112.174 288.749 112.29 288.837 112.407C289.022 112.651 289.208 112.887 289.41 113.114C293.711 118.161 295.434 125.508 295.816 134.408C295.815 134.478 295.815 134.548 295.815 134.619C295.813 136.315 295.72 137.992 295.542 139.678C295.536 139.728 295.531 139.778 295.526 139.83C295.329 141.681 295.329 141.681 295.094 141.894C294.954 141.956 294.824 141.978 294.674 142.002C294.555 142.039 294.436 142.075 294.317 142.111C292.176 142.642 289.649 142.453 287.567 141.723C287.565 141.764 287.562 141.806 287.56 141.848C287.403 144.514 286.861 147.272 285.242 149.4C281.503 148.88 277.863 147.714 274.416 146.12C274.346 146.088 274.277 146.056 274.205 146.023C273.348 145.629 272.512 145.201 271.692 144.724C271.628 144.687 271.564 144.65 271.498 144.612C269.906 143.682 268.392 142.65 266.976 141.444C266.855 141.342 266.733 141.241 266.611 141.139C266.562 141.097 266.513 141.055 266.462 141.012C266.351 140.918 266.238 140.825 266.125 140.733C266.063 140.683 266.002 140.632 265.939 140.58C265.883 140.535 265.827 140.49 265.77 140.444C265.73 140.405 265.689 140.367 265.648 140.327C265.648 140.281 265.648 140.235 265.648 140.188C265.612 140.173 265.576 140.158 265.539 140.143C265.326 140.014 265.166 139.84 264.995 139.657C264.958 139.619 264.921 139.58 264.883 139.54C264.805 139.458 264.728 139.376 264.65 139.293C264.533 139.169 264.415 139.045 264.297 138.921C263.914 138.518 263.54 138.111 263.19 137.675C263.133 137.607 263.075 137.538 263.016 137.467C262.503 136.844 262.044 136.187 261.596 135.512C261.566 135.467 261.536 135.422 261.505 135.375C260.645 134.074 259.942 132.671 259.272 131.255C259.252 131.297 259.233 131.34 259.213 131.383C258.713 132.474 258.163 133.514 257.545 134.535C257.505 134.601 257.505 134.601 257.465 134.668C256.206 136.753 254.565 138.742 252.762 140.327C252.701 140.384 252.639 140.44 252.576 140.498C250.981 141.947 249.208 143.19 247.369 144.266C247.244 144.339 247.12 144.412 246.997 144.486C245.915 145.127 244.804 145.678 243.663 146.19C243.596 146.22 243.529 146.25 243.459 146.282C240.796 147.472 238.004 148.339 235.165 148.92C235.116 148.93 235.066 148.941 235.015 148.951C234.468 149.062 233.924 149.153 233.368 149.191C232.915 148.548 232.554 147.894 232.238 147.167C232.185 147.044 232.185 147.044 232.131 146.92C231.444 145.231 231.15 143.341 231.109 141.514C231.061 141.531 231.012 141.548 230.962 141.565C230.184 141.818 229.389 141.949 228.585 142.072C228.539 142.08 228.493 142.087 228.446 142.095C227.953 142.165 227.454 142.158 226.958 142.159C226.798 142.159 226.639 142.162 226.479 142.164C225.484 142.171 224.393 142.082 223.471 141.653C223.333 141.437 223.309 141.331 223.274 141.08C223.263 141.004 223.253 140.929 223.242 140.852C223.231 140.769 223.22 140.687 223.209 140.602C223.192 140.473 223.192 140.473 223.175 140.342C222.364 134 222.827 127.504 225.729 118.902C225.752 118.847 225.775 118.791 225.799 118.734C226.671 116.653 227.877 114.717 229.227 112.947C229.315 112.831 229.403 112.715 229.49 112.598C229.544 112.528 229.597 112.458 229.652 112.386C229.699 112.323 229.747 112.261 229.796 112.196C229.835 112.152 229.873 112.108 229.914 112.063C229.957 112.063 230.001 112.063 230.046 112.063C230.061 112.025 230.075 111.988 230.089 111.949C230.212 111.723 230.38 111.555 230.556 111.375C230.611 111.317 230.611 111.317 230.667 111.259C230.783 111.137 230.901 111.015 231.018 110.894C231.097 110.811 231.177 110.728 231.256 110.645C231.45 110.443 231.645 110.241 231.84 110.039C231.786 110.031 231.731 110.023 231.675 110.015C229.037 109.619 226.484 108.943 224.069 107.736C223.966 107.685 223.966 107.685 223.861 107.633C222.805 107.105 221.799 106.513 220.814 105.852C220.767 105.82 220.72 105.789 220.672 105.756C219.679 105.089 218.724 104.349 217.825 103.548C217.754 103.486 217.683 103.424 217.613 103.362C217.218 103.015 216.83 102.662 216.45 102.297C216.257 102.114 216.059 101.938 215.859 101.763C215.766 101.664 215.766 101.664 215.766 101.525C215.722 101.525 215.678 101.525 215.633 101.525C215.633 101.479 215.633 101.432 215.633 101.385C215.597 101.37 215.561 101.355 215.524 101.34C215.311 101.211 215.152 101.036 214.981 100.853C214.946 100.815 214.91 100.777 214.873 100.738C214.651 100.5 214.437 100.256 214.232 100.002C214.098 99.84 213.959 99.6834 213.82 99.5267C213.432 99.0903 213.064 98.643 212.711 98.1747C212.668 98.1184 212.668 98.1184 212.625 98.061C212.439 97.8145 212.254 97.567 212.07 97.3189C211.985 97.2042 211.899 97.0898 211.814 96.9754C210.304 94.9393 208.951 92.728 207.812 90.4411C207.789 90.3965 207.766 90.3518 207.742 90.3058C207.643 90.1001 207.596 89.9528 207.6 89.7209C207.722 89.3305 208.001 89.0521 208.26 88.7531C208.306 88.7003 208.306 88.7003 208.352 88.6464C209.831 86.943 211.785 85.9393 213.773 85.0543C213.753 85.0204 213.733 84.9865 213.712 84.9516C212.652 83.1722 211.73 81.2242 211.449 79.1222C211.436 79.0339 211.424 78.9457 211.412 78.8547C211.376 78.5479 211.375 78.2445 211.378 77.9357C211.378 77.8817 211.379 77.8276 211.379 77.7719C211.38 77.6404 211.381 77.5089 211.382 77.3774C216.443 74.5933 222.15 72.8851 228.519 72.562C228.575 72.5604 228.632 72.5589 228.69 72.5573C233.557 72.4443 238.349 73.5994 242.6 76.1212C242.588 76.0727 242.576 76.0242 242.563 75.9743C241.456 71.2643 242.117 66.0729 243.596 61.5352C243.622 61.457 243.647 61.3787 243.674 61.2981C245.033 57.1832 247.159 53.3734 249.707 49.9502C249.766 49.8707 249.824 49.7912 249.882 49.7117C250.43 48.9694 251.011 48.2592 251.603 47.5555C251.7 47.4371 251.793 47.3157 251.886 47.1935C251.934 47.1359 251.982 47.0784 252.032 47.019C252.076 47.019 252.119 47.019 252.165 47.019C252.182 46.9786 252.199 46.9382 252.217 46.8966C252.364 46.61 252.59 46.3924 252.804 46.1598C252.85 46.1072 252.895 46.0546 252.942 46.0004C253.33 45.5813 253.33 45.5813 253.629 45.6115ZM258.394 76.2543C257.825 76.9542 257.698 77.884 257.744 78.7732C257.837 79.5902 258.104 80.2262 258.674 80.7971C258.74 80.8432 258.805 80.8892 258.873 80.9367C258.889 81.1451 258.889 81.1451 258.877 81.4185C258.874 81.4937 258.874 81.4937 258.871 81.5705C258.864 81.7395 258.855 81.9084 258.847 82.0774C258.842 82.1982 258.836 82.319 258.831 82.4399C258.817 82.769 258.802 83.0981 258.786 83.4271C258.77 83.7718 258.755 84.1166 258.74 84.4613C258.711 85.1157 258.681 85.77 258.651 86.4243C258.607 87.3813 258.564 88.3385 258.521 89.2956C258.518 89.3661 258.515 89.4365 258.512 89.5091C258.505 89.6497 258.499 89.7903 258.493 89.9309C258.475 90.3407 258.456 90.7505 258.437 91.1603C258.425 91.4167 258.414 91.6731 258.402 91.9295C258.397 92.0475 258.391 92.1654 258.386 92.2834C258.353 92.9685 258.334 93.6501 258.342 94.3363C258.275 94.3443 258.208 94.3523 258.139 94.3605C257.878 94.4058 257.655 94.4793 257.408 94.5762C257.122 94.6871 256.837 94.7952 256.548 94.8946C256.497 94.8271 256.446 94.7596 256.393 94.6901C256.359 94.6465 256.326 94.6028 256.292 94.5579C256.219 94.4616 256.145 94.3653 256.072 94.2691C255.917 94.065 255.761 93.861 255.606 93.6572C255.391 93.3762 255.178 93.0941 254.967 92.8104C254.671 92.4125 254.37 92.0185 254.066 91.6276C253.765 91.2409 253.473 90.8483 253.186 90.4499C252.926 90.0893 252.661 89.7373 252.38 89.3943C252.322 89.3213 252.263 89.2482 252.204 89.1751C252.118 89.0676 252.03 88.961 251.941 88.856C251.444 88.2701 251.444 88.2701 251.419 87.9159C251.435 87.7759 251.454 87.6364 251.476 87.4974C251.549 86.8633 251.257 86.2469 250.903 85.7522C250.509 85.2653 250.133 84.9478 249.545 84.7795C249.156 84.7723 248.834 84.8615 248.549 85.1459C248.285 85.623 248.254 86.0468 248.387 86.5765C248.634 87.3764 249.103 88.0091 249.809 88.4069C249.991 88.4816 250.152 88.5013 250.346 88.5219C250.553 88.5559 250.669 88.5762 250.816 88.7366C250.849 88.7905 250.881 88.8443 250.915 88.8998C250.955 88.9629 250.994 89.026 251.035 89.091C251.079 89.1637 251.123 89.2365 251.168 89.3114C251.22 89.3948 251.273 89.478 251.325 89.5612C251.502 89.8421 251.678 90.1241 251.853 90.4062C251.972 90.597 252.091 90.7878 252.209 90.9785C252.239 91.0261 252.269 91.0738 252.299 91.1229C252.517 91.4721 252.737 91.8197 252.958 92.1669C253.338 92.7655 253.716 93.3663 254.093 93.9671C254.181 94.107 254.269 94.2469 254.357 94.3867C254.486 94.5911 254.614 94.7956 254.743 95.0001C254.782 95.0625 254.821 95.125 254.862 95.1893C254.898 95.2474 254.935 95.3055 254.972 95.3653C255.02 95.4415 255.02 95.4415 255.069 95.5192C255.15 95.6566 255.22 95.7955 255.286 95.9414C255.242 95.997 255.197 96.0526 255.15 96.1099C255.091 96.1846 255.031 96.2593 254.971 96.334C254.941 96.3704 254.912 96.4068 254.882 96.4444C254.689 96.6856 254.519 96.9326 254.356 97.1976C252.993 96.8254 251.634 96.4362 250.277 96.0386C249.229 95.7316 248.181 95.4265 247.132 95.1236C247.042 95.0978 247.042 95.0978 246.951 95.0715C246.354 94.899 245.757 94.7267 245.16 94.5544C244.935 94.4896 244.71 94.4247 244.485 94.3598C244.282 94.3012 244.079 94.2428 243.876 94.1844C243.783 94.1574 243.69 94.1302 243.596 94.1028C243.375 94.0375 243.153 93.9753 242.929 93.9193C242.846 93.8973 242.763 93.8753 242.677 93.8527C242.603 93.8344 242.53 93.8162 242.454 93.7974C242.149 93.6512 242.074 93.3917 241.954 93.0781C241.7 92.4539 241.054 92.0888 240.479 91.8413C239.714 91.5674 238.856 91.476 238.107 91.8394C237.805 92.0136 237.538 92.1823 237.39 92.5185C237.285 92.9254 237.291 93.3406 237.461 93.7256C237.511 93.8146 237.563 93.9019 237.618 93.9873C237.645 94.0288 237.672 94.0703 237.699 94.113C238.22 94.8287 239.079 95.1996 239.902 95.3395C240.632 95.4253 241.186 95.3114 241.803 94.8946C241.936 94.8248 241.936 94.8248 242.092 94.8707C242.19 94.9095 242.19 94.9095 242.291 94.9491C242.367 94.9785 242.442 95.0079 242.52 95.0382C242.605 95.0717 242.69 95.1053 242.774 95.1388C242.864 95.1741 242.954 95.2093 243.044 95.2444C243.289 95.3402 243.534 95.4366 243.778 95.5332C243.973 95.61 244.168 95.6864 244.363 95.7628C245.034 96.026 245.704 96.2909 246.375 96.5561C246.602 96.6458 246.828 96.7354 247.055 96.8251C247.527 97.0117 247.999 97.1985 248.471 97.3853C248.602 97.4374 248.734 97.4894 248.865 97.5414C249.748 97.8906 250.63 98.2406 251.51 98.5956C251.576 98.6222 251.642 98.6489 251.71 98.6763C252.015 98.799 252.319 98.922 252.623 99.0457C252.729 99.0882 252.834 99.1307 252.939 99.1733C252.986 99.1926 253.034 99.2119 253.082 99.2318C253.274 99.3088 253.419 99.3611 253.626 99.3611C253.615 99.3997 253.604 99.4383 253.593 99.4781C253.556 99.6572 253.551 99.8182 253.551 100.001C253.55 100.105 253.55 100.105 253.55 100.212C253.551 100.284 253.551 100.356 253.551 100.43C253.551 100.501 253.551 100.572 253.55 100.646C253.55 100.715 253.551 100.785 253.551 100.856C253.551 100.951 253.551 100.951 253.551 101.047C253.561 101.279 253.592 101.505 253.626 101.734C253.553 101.762 253.481 101.791 253.406 101.82C252.182 102.298 250.958 102.775 249.736 103.258C249.518 103.344 249.3 103.43 249.082 103.515C248.59 103.709 248.098 103.903 247.609 104.102C247.392 104.189 247.176 104.276 246.959 104.363C246.858 104.404 246.756 104.446 246.655 104.487C246.515 104.545 246.376 104.601 246.236 104.657C246.157 104.689 246.078 104.721 245.997 104.754C245.756 104.813 245.67 104.786 245.456 104.665C244.837 104.357 244.135 104.354 243.488 104.593C242.906 104.86 242.387 105.215 242.135 105.852C242.083 106.196 242.084 106.519 242.264 106.82C242.554 107.176 242.877 107.297 243.314 107.344C244.134 107.382 244.816 107.168 245.456 106.619C245.671 106.404 245.833 106.233 245.899 105.924C245.987 105.712 245.987 105.712 246.174 105.612C246.298 105.577 246.298 105.577 246.424 105.542C246.495 105.521 246.495 105.521 246.567 105.5C246.731 105.453 246.895 105.408 247.058 105.363C247.177 105.329 247.295 105.296 247.413 105.262C247.693 105.181 247.974 105.102 248.255 105.023C248.823 104.862 249.39 104.696 249.957 104.529C250.381 104.405 250.805 104.281 251.23 104.157C251.474 104.086 251.719 104.014 251.963 103.942C252.256 103.857 252.549 103.771 252.842 103.687C252.951 103.655 253.061 103.623 253.171 103.591C253.322 103.546 253.473 103.502 253.625 103.459C253.669 103.446 253.714 103.432 253.76 103.419C253.975 103.358 254.074 103.333 254.29 103.409C254.4 103.566 254.4 103.566 254.514 103.767C254.646 103.995 254.781 104.217 254.929 104.434C254.959 104.478 254.988 104.521 255.019 104.566C255.041 104.599 255.064 104.631 255.087 104.665C254.819 105.094 254.55 105.523 254.282 105.952C254.241 106.016 254.201 106.081 254.16 106.147C253.548 107.124 252.933 108.098 252.314 109.07C252.026 109.522 251.741 109.976 251.462 110.434C251.188 110.884 250.909 111.33 250.63 111.777C250.542 111.918 250.453 112.06 250.365 112.202C250.306 112.296 250.248 112.39 250.189 112.483C250.16 112.53 250.131 112.576 250.101 112.623C249.956 112.856 249.809 113.088 249.662 113.319C249.302 113.881 249.302 113.881 248.967 114.459C248.505 115.287 248.505 115.287 248.162 115.439C247.943 115.465 247.943 115.465 247.726 115.47C247.166 115.504 246.621 115.966 246.253 116.39C245.67 117.149 245.332 117.886 245.365 118.883C245.407 119.268 245.497 119.579 245.767 119.853C246.144 120.153 246.519 120.211 246.984 120.158C247.758 119.952 248.423 119.397 248.844 118.693C249.239 117.956 249.554 117.167 249.336 116.306C249.324 116.263 249.312 116.22 249.3 116.176C249.313 115.738 249.605 115.489 249.874 115.18C250.04 114.985 250.19 114.778 250.342 114.571C250.559 114.279 250.778 113.989 251.002 113.703C251.254 113.382 251.498 113.056 251.742 112.729C251.98 112.409 252.223 112.094 252.468 111.779C252.731 111.44 252.991 111.098 253.244 110.75C253.49 110.411 253.744 110.079 254.002 109.75C254.173 109.53 254.34 109.307 254.506 109.084C254.809 108.676 255.118 108.275 255.429 107.874C255.702 107.522 255.971 107.166 256.237 106.807C256.425 106.554 256.618 106.306 256.814 106.061C257.182 106.126 257.522 106.267 257.871 106.399C258.078 106.469 258.275 106.499 258.492 106.52C258.551 106.525 258.61 106.531 258.671 106.537C258.716 106.541 258.761 106.545 258.807 106.549C258.808 106.587 258.809 106.625 258.81 106.664C258.864 108.324 258.92 109.984 258.993 111.644C258.996 111.722 258.996 111.722 259 111.801C259.022 112.315 259.045 112.828 259.068 113.341C259.075 113.487 259.081 113.632 259.088 113.777C259.095 113.955 259.104 114.133 259.112 114.311C259.122 114.538 259.131 114.766 259.139 114.994C259.143 115.096 259.143 115.096 259.147 115.201C259.149 115.263 259.151 115.326 259.152 115.39C259.155 115.472 259.155 115.472 259.158 115.555C259.139 115.692 259.139 115.692 258.96 115.871C258.924 115.896 258.888 115.922 258.851 115.948C258.478 116.26 258.331 116.819 258.275 117.297C258.212 118.022 258.347 118.74 258.763 119.331C258.999 119.607 259.25 119.751 259.608 119.774C260.016 119.72 260.227 119.53 260.48 119.203C260.907 118.558 260.941 117.853 260.866 117.088C260.763 116.554 260.531 116.119 260.135 115.762C260.091 115.762 260.047 115.762 260.002 115.762C260.004 115.716 260.006 115.671 260.008 115.624C260.058 114.522 260.108 113.419 260.158 112.316C260.182 111.783 260.206 111.25 260.231 110.717C260.252 110.252 260.273 109.787 260.294 109.322C260.305 109.076 260.316 108.83 260.327 108.584C260.339 108.309 260.352 108.034 260.364 107.76C260.37 107.637 260.37 107.637 260.375 107.513C260.379 107.438 260.382 107.363 260.386 107.285C260.39 107.188 260.39 107.188 260.395 107.088C260.401 106.885 260.402 106.683 260.401 106.48C260.52 106.473 260.52 106.473 260.642 106.467C261.021 106.424 261.359 106.284 261.714 106.142C261.897 106.073 262.069 106.024 262.261 105.991C262.735 106.572 263.193 107.162 263.641 107.766C263.905 108.122 264.175 108.473 264.448 108.823C264.821 109.302 265.188 109.785 265.544 110.279C265.876 110.74 266.22 111.188 266.572 111.632C266.843 111.975 267.107 112.323 267.367 112.674C267.599 112.985 267.835 113.292 268.072 113.598C268.379 113.993 268.683 114.39 268.98 114.793C269.116 114.977 269.253 115.155 269.401 115.33C269.766 115.766 269.766 115.766 269.766 116.097C269.756 116.142 269.745 116.187 269.734 116.233C269.554 117.053 269.777 117.828 270.177 118.531C270.663 119.284 271.274 119.854 272.137 120.054C272.521 120.109 272.818 120.084 273.15 119.863C273.421 119.641 273.617 119.404 273.685 119.042C273.779 118.049 273.523 117.249 272.954 116.459C272.538 115.955 272.057 115.503 271.427 115.343C271.311 115.347 271.196 115.351 271.08 115.356C270.827 115.333 270.725 115.302 270.54 115.116C270.384 114.892 270.246 114.66 270.111 114.423C270.059 114.336 270.007 114.249 269.955 114.163C269.85 113.989 269.747 113.813 269.645 113.637C269.482 113.357 269.314 113.08 269.146 112.803C269.072 112.681 268.998 112.558 268.924 112.436C268.594 111.887 268.252 111.348 267.909 110.809C267.539 110.229 267.173 109.647 266.81 109.062C266.449 108.48 266.086 107.9 265.719 107.322C265.645 107.205 265.57 107.087 265.496 106.969C265.271 106.614 265.045 106.26 264.813 105.91C264.735 105.794 264.659 105.677 264.582 105.56C264.487 105.414 264.39 105.27 264.293 105.126C264.23 105.029 264.23 105.029 264.165 104.93C264.109 104.845 264.109 104.845 264.051 104.759C263.988 104.595 263.988 104.595 264.036 104.411C264.129 104.229 264.233 104.065 264.349 103.897C264.505 103.67 264.648 103.441 264.785 103.2C265.839 103.444 266.874 103.756 267.913 104.067C268.166 104.143 268.419 104.219 268.673 104.295C268.715 104.307 268.758 104.32 268.802 104.333C269.427 104.519 270.056 104.693 270.687 104.859C270.919 104.921 271.151 104.984 271.382 105.047C271.53 105.086 271.678 105.124 271.825 105.161C272.975 105.448 272.975 105.448 273.259 105.764C273.357 105.955 273.42 106.136 273.486 106.34C273.949 106.919 274.676 107.188 275.372 107.265C275.851 107.29 276.33 107.178 276.725 106.879C276.948 106.656 277.017 106.437 277.035 106.122C277.028 105.647 276.786 105.338 276.474 105.015C275.921 104.525 275.223 104.288 274.501 104.296C274.116 104.347 273.74 104.51 273.419 104.735C273.255 104.692 273.11 104.642 272.954 104.578C272.881 104.55 272.881 104.55 272.806 104.521C272.641 104.457 272.476 104.391 272.311 104.325C272.193 104.279 272.075 104.232 271.957 104.186C271.69 104.081 271.423 103.976 271.157 103.871C270.688 103.685 270.218 103.5 269.749 103.316C268.718 102.911 267.688 102.504 266.658 102.097C266.233 101.929 265.808 101.762 265.382 101.594C265.382 100.834 265.382 100.074 265.382 99.2913C267.679 98.3799 269.975 97.4691 272.278 96.5766C273.009 96.2931 273.739 96.0076 274.468 95.7181C274.543 95.6887 274.617 95.6592 274.694 95.6288C275.047 95.4885 275.401 95.3478 275.754 95.2064C275.88 95.1567 276.005 95.107 276.13 95.0573C276.186 95.0346 276.243 95.012 276.301 94.9886C276.578 94.8788 276.841 94.7837 277.139 94.755C277.273 94.8196 277.273 94.8196 277.392 94.9164C277.928 95.3014 278.562 95.3139 279.185 95.1955C280.011 95.0079 280.872 94.662 281.361 93.8938C281.574 93.5005 281.691 93.1926 281.655 92.7311C281.509 92.2514 281.221 91.9195 280.8 91.6843C280.02 91.3397 279.136 91.4558 278.368 91.7802C278.094 91.9108 277.844 92.0504 277.604 92.2426C277.538 92.2915 277.472 92.3405 277.405 92.3909C277.047 92.7105 276.823 93.1592 276.74 93.6384C276.675 93.6553 276.61 93.6722 276.542 93.6896C275.926 93.8499 275.312 94.019 274.7 94.1961C274.607 94.2229 274.515 94.2496 274.422 94.2762C274.224 94.3333 274.026 94.3904 273.828 94.4475C273.513 94.5386 273.198 94.6295 272.882 94.7204C271.771 95.0408 270.66 95.3622 269.548 95.6839C269.366 95.7367 269.184 95.7894 269.002 95.8422C268.942 95.8594 268.883 95.8766 268.821 95.8944C268.702 95.9289 268.583 95.9635 268.463 95.998C268.115 96.0986 267.768 96.1994 267.42 96.3003C267.202 96.3636 266.983 96.4268 266.765 96.49C266.665 96.519 266.564 96.5481 266.464 96.5773C265.796 96.7715 265.126 96.9542 264.452 97.1278C264.432 97.0735 264.413 97.0191 264.392 96.9631C264.319 96.7776 264.235 96.6378 264.12 96.4779C264.086 96.4293 264.052 96.3806 264.017 96.3304C263.985 96.2942 263.954 96.2579 263.921 96.2206C263.877 96.2206 263.833 96.2206 263.788 96.2206C263.734 96.0807 263.734 96.0807 263.722 95.8716C263.81 95.6712 263.933 95.4976 264.055 95.3185C264.13 95.2056 264.204 95.0927 264.278 94.9797C264.318 94.9203 264.357 94.8609 264.398 94.7997C264.602 94.4892 264.798 94.1734 264.995 93.8578C265.077 93.7267 265.159 93.5956 265.241 93.4646C265.324 93.332 265.407 93.1995 265.49 93.067C266.108 92.0806 266.727 91.0945 267.354 90.1151C267.46 89.9506 267.565 89.7861 267.67 89.6215C267.724 89.5381 267.777 89.4548 267.831 89.3716C267.91 89.2488 267.988 89.1257 268.067 89.0025C268.113 88.931 268.158 88.8594 268.206 88.7857C268.316 88.6272 268.316 88.6272 268.305 88.4739C268.387 88.4826 268.469 88.4912 268.554 88.5001C269.077 88.4993 269.57 88.2035 269.953 87.8415C270.48 87.2348 270.719 86.5495 270.71 85.7462C270.685 85.3903 270.576 85.2011 270.331 84.9627C270.045 84.7598 269.771 84.732 269.434 84.7751C268.974 84.915 268.64 85.1927 268.305 85.5428C268.269 85.5785 268.232 85.6142 268.195 85.651C267.778 86.1016 267.556 86.7333 267.549 87.3573C267.557 87.5479 267.569 87.6909 267.633 87.8698C267.646 88.1805 267.442 88.3541 267.255 88.5786C267.174 88.6784 267.094 88.7783 267.014 88.8782C266.973 88.9277 266.933 88.9773 266.892 89.0283C266.731 89.2297 266.579 89.4376 266.428 89.6473C266.133 90.055 265.826 90.4514 265.515 90.8468C265.033 91.4624 264.561 92.0843 264.103 92.7201C263.851 93.068 263.589 93.4031 263.317 93.734C263.013 94.1067 262.735 94.4981 262.46 94.8946C262.169 94.8479 261.915 94.7364 261.646 94.6154C261.271 94.4508 260.944 94.3514 260.534 94.3363C260.534 94.2851 260.535 94.2339 260.535 94.1812C260.539 93.5178 260.515 92.8578 260.486 92.1954C260.481 92.0739 260.476 91.9524 260.471 91.8309C260.457 91.5038 260.443 91.1766 260.429 90.8495C260.417 90.576 260.405 90.3024 260.393 90.0289C260.366 89.384 260.338 88.7392 260.31 88.0944C260.282 87.4291 260.253 86.7639 260.225 86.0986C260.201 85.5265 260.176 84.9544 260.151 84.3824C260.137 84.041 260.122 83.6997 260.108 83.3583C260.094 83.0381 260.08 82.7179 260.066 82.3977C260.061 82.2801 260.056 82.1624 260.051 82.0448C260.045 81.8846 260.038 81.7245 260.03 81.5643C260.027 81.4746 260.023 81.3849 260.019 81.2924C260.01 81.0739 260.01 81.0739 259.936 80.8669C259.982 80.8539 260.029 80.841 260.077 80.8276C260.502 80.6042 260.774 80.1411 260.932 79.6805C261.205 78.6407 261.228 77.6661 260.749 76.6795C260.455 76.1629 260.14 75.9035 259.592 75.7336C259.155 75.6212 258.696 75.956 258.394 76.2543Z" fill="white"/>
<path d="M208.412 181.5V207H205.341V181.5H208.412ZM207.682 197.338L206.403 197.288C206.414 196.06 206.597 194.925 206.951 193.885C207.305 192.833 207.803 191.92 208.445 191.146C209.087 190.371 209.851 189.773 210.736 189.353C211.633 188.921 212.623 188.705 213.708 188.705C214.593 188.705 215.39 188.827 216.099 189.07C216.807 189.303 217.41 189.679 217.908 190.199C218.417 190.719 218.805 191.395 219.07 192.225C219.336 193.044 219.469 194.045 219.469 195.229V207H216.381V195.196C216.381 194.256 216.243 193.503 215.966 192.938C215.689 192.363 215.285 191.948 214.754 191.693C214.223 191.428 213.57 191.295 212.795 191.295C212.031 191.295 211.334 191.455 210.703 191.776C210.083 192.097 209.547 192.54 209.093 193.104C208.65 193.669 208.301 194.316 208.047 195.047C207.803 195.766 207.682 196.53 207.682 197.338ZM234.909 203.929V194.682C234.909 193.973 234.765 193.359 234.478 192.839C234.201 192.308 233.78 191.898 233.216 191.61C232.651 191.323 231.954 191.179 231.124 191.179C230.349 191.179 229.669 191.312 229.082 191.577C228.507 191.843 228.053 192.191 227.721 192.623C227.4 193.055 227.239 193.52 227.239 194.018H224.168C224.168 193.376 224.334 192.739 224.666 192.108C224.998 191.478 225.474 190.908 226.094 190.398C226.725 189.878 227.477 189.469 228.352 189.17C229.237 188.86 230.222 188.705 231.307 188.705C232.613 188.705 233.764 188.926 234.76 189.369C235.767 189.812 236.553 190.481 237.117 191.378C237.693 192.263 237.98 193.376 237.98 194.715V203.082C237.98 203.68 238.03 204.316 238.13 204.991C238.241 205.666 238.401 206.247 238.611 206.734V207H235.407C235.252 206.646 235.131 206.175 235.042 205.589C234.953 204.991 234.909 204.438 234.909 203.929ZM235.44 196.109L235.474 198.268H232.369C231.495 198.268 230.715 198.34 230.028 198.483C229.342 198.616 228.767 198.821 228.302 199.098C227.837 199.374 227.483 199.723 227.239 200.144C226.996 200.553 226.874 201.035 226.874 201.588C226.874 202.152 227.001 202.667 227.256 203.132C227.51 203.597 227.892 203.967 228.401 204.244C228.922 204.51 229.558 204.643 230.311 204.643C231.251 204.643 232.081 204.443 232.801 204.045C233.52 203.646 234.09 203.16 234.511 202.584C234.942 202.008 235.175 201.45 235.208 200.907L236.52 202.385C236.442 202.85 236.232 203.364 235.889 203.929C235.546 204.493 235.086 205.035 234.511 205.556C233.946 206.065 233.271 206.491 232.485 206.834C231.711 207.166 230.836 207.332 229.862 207.332C228.645 207.332 227.577 207.094 226.658 206.618C225.751 206.142 225.042 205.506 224.533 204.709C224.035 203.901 223.786 202.999 223.786 202.003C223.786 201.04 223.974 200.193 224.351 199.463C224.727 198.721 225.269 198.107 225.978 197.62C226.686 197.122 227.538 196.746 228.534 196.491C229.53 196.237 230.643 196.109 231.871 196.109H235.44ZM246.133 192.872V207H243.062V189.037H245.967L246.133 192.872ZM245.402 197.338L244.124 197.288C244.135 196.06 244.318 194.925 244.672 193.885C245.026 192.833 245.524 191.92 246.166 191.146C246.808 190.371 247.572 189.773 248.457 189.353C249.354 188.921 250.344 188.705 251.429 188.705C252.314 188.705 253.111 188.827 253.819 189.07C254.528 189.303 255.131 189.679 255.629 190.199C256.138 190.719 256.525 191.395 256.791 192.225C257.057 193.044 257.189 194.045 257.189 195.229V207H254.102V195.196C254.102 194.256 253.963 193.503 253.687 192.938C253.41 192.363 253.006 191.948 252.475 191.693C251.943 191.428 251.29 191.295 250.516 191.295C249.752 191.295 249.055 191.455 248.424 191.776C247.804 192.097 247.267 192.54 246.813 193.104C246.371 193.669 246.022 194.316 245.768 195.047C245.524 195.766 245.402 196.53 245.402 197.338ZM265.441 189.037V207H262.354V189.037H265.441ZM262.121 184.272C262.121 183.774 262.271 183.354 262.569 183.011C262.879 182.668 263.333 182.496 263.931 182.496C264.517 182.496 264.965 182.668 265.275 183.011C265.596 183.354 265.757 183.774 265.757 184.272C265.757 184.748 265.596 185.158 265.275 185.501C264.965 185.833 264.517 185.999 263.931 185.999C263.333 185.999 262.879 185.833 262.569 185.501C262.271 185.158 262.121 184.748 262.121 184.272ZM273.677 192.606V207H270.589V189.037H273.511L273.677 192.606ZM273.046 197.338L271.618 197.288C271.629 196.06 271.79 194.925 272.1 193.885C272.41 192.833 272.869 191.92 273.478 191.146C274.086 190.371 274.844 189.773 275.752 189.353C276.66 188.921 277.711 188.705 278.906 188.705C279.747 188.705 280.522 188.827 281.23 189.07C281.939 189.303 282.553 189.674 283.073 190.183C283.593 190.692 283.997 191.345 284.285 192.142C284.573 192.938 284.717 193.901 284.717 195.03V207H281.646V195.18C281.646 194.239 281.485 193.486 281.164 192.922C280.854 192.357 280.411 191.948 279.836 191.693C279.26 191.428 278.585 191.295 277.811 191.295C276.903 191.295 276.145 191.455 275.536 191.776C274.927 192.097 274.44 192.54 274.075 193.104C273.71 193.669 273.444 194.316 273.278 195.047C273.123 195.766 273.046 196.53 273.046 197.338ZM284.684 195.645L282.625 196.275C282.636 195.29 282.797 194.344 283.106 193.437C283.427 192.529 283.887 191.721 284.484 191.013C285.093 190.304 285.84 189.745 286.726 189.336C287.611 188.915 288.624 188.705 289.764 188.705C290.727 188.705 291.579 188.832 292.32 189.087C293.073 189.341 293.704 189.734 294.213 190.266C294.733 190.786 295.126 191.455 295.392 192.274C295.657 193.093 295.79 194.067 295.79 195.196V207H292.702V195.163C292.702 194.156 292.542 193.376 292.221 192.822C291.911 192.258 291.468 191.865 290.893 191.644C290.328 191.411 289.653 191.295 288.867 191.295C288.192 191.295 287.594 191.411 287.074 191.644C286.554 191.876 286.117 192.197 285.763 192.606C285.409 193.005 285.137 193.464 284.949 193.984C284.772 194.505 284.684 195.058 284.684 195.645ZM308.143 207.332C306.892 207.332 305.757 207.122 304.739 206.701C303.732 206.27 302.863 205.666 302.133 204.892C301.413 204.117 300.86 203.198 300.473 202.136C300.085 201.073 299.892 199.911 299.892 198.649V197.952C299.892 196.491 300.107 195.191 300.539 194.051C300.971 192.9 301.557 191.926 302.299 191.129C303.04 190.332 303.882 189.729 304.822 189.319C305.763 188.91 306.737 188.705 307.744 188.705C309.028 188.705 310.135 188.926 311.064 189.369C312.005 189.812 312.774 190.432 313.372 191.229C313.97 192.014 314.412 192.944 314.7 194.018C314.988 195.08 315.132 196.242 315.132 197.504V198.882H301.718V196.375H312.061V196.143C312.016 195.346 311.85 194.571 311.562 193.818C311.286 193.066 310.843 192.446 310.234 191.959C309.626 191.472 308.796 191.229 307.744 191.229C307.047 191.229 306.405 191.378 305.818 191.677C305.232 191.965 304.728 192.396 304.308 192.972C303.887 193.547 303.561 194.25 303.328 195.08C303.096 195.91 302.979 196.868 302.979 197.952V198.649C302.979 199.502 303.096 200.304 303.328 201.057C303.572 201.798 303.92 202.451 304.374 203.016C304.839 203.58 305.398 204.023 306.051 204.344C306.715 204.665 307.467 204.825 308.309 204.825C309.393 204.825 310.312 204.604 311.064 204.161C311.817 203.718 312.476 203.126 313.04 202.385L314.899 203.862C314.512 204.449 314.02 205.008 313.422 205.539C312.824 206.07 312.088 206.502 311.214 206.834C310.351 207.166 309.327 207.332 308.143 207.332Z" fill="white"/>
</svg>
