<svg width="259" height="259" viewBox="0 0 259 259" fill="none" xmlns="http://www.w3.org/2000/svg">
<circle cx="129.5" cy="129.5" r="129.5" fill="#EE4266"/>
<path d="M78.4121 184.9V210.4H75.3408V184.9H78.4121ZM77.6816 200.738L76.4033 200.688C76.4144 199.459 76.597 198.325 76.9512 197.285C77.3053 196.233 77.8034 195.32 78.4453 194.545C79.0872 193.771 79.8509 193.173 80.7363 192.752C81.6328 192.321 82.6234 192.105 83.708 192.105C84.5934 192.105 85.3903 192.227 86.0986 192.47C86.807 192.703 87.4102 193.079 87.9082 193.599C88.4173 194.119 88.8047 194.794 89.0703 195.625C89.3359 196.444 89.4688 197.445 89.4688 198.629V210.4H86.3809V198.596C86.3809 197.655 86.2425 196.903 85.9658 196.338C85.6891 195.763 85.2852 195.348 84.7539 195.093C84.2227 194.828 83.5697 194.695 82.7949 194.695C82.0312 194.695 81.334 194.855 80.7031 195.176C80.0833 195.497 79.5465 195.94 79.0928 196.504C78.6501 197.069 78.3014 197.716 78.0469 198.447C77.8034 199.166 77.6816 199.93 77.6816 200.738ZM104.909 207.329V198.082C104.909 197.373 104.765 196.759 104.478 196.239C104.201 195.708 103.78 195.298 103.216 195.01C102.651 194.722 101.954 194.579 101.124 194.579C100.349 194.579 99.6686 194.711 99.082 194.977C98.5065 195.243 98.0527 195.591 97.7207 196.023C97.3997 196.455 97.2393 196.919 97.2393 197.417H94.168C94.168 196.776 94.334 196.139 94.666 195.508C94.998 194.877 95.474 194.307 96.0938 193.798C96.7246 193.278 97.4772 192.869 98.3516 192.57C99.237 192.26 100.222 192.105 101.307 192.105C102.613 192.105 103.764 192.326 104.76 192.769C105.767 193.212 106.553 193.881 107.117 194.778C107.693 195.663 107.98 196.776 107.98 198.115V206.482C107.98 207.08 108.03 207.716 108.13 208.391C108.241 209.066 108.401 209.647 108.611 210.134V210.4H105.407C105.252 210.046 105.131 209.575 105.042 208.989C104.953 208.391 104.909 207.838 104.909 207.329ZM105.44 199.509L105.474 201.667H102.369C101.495 201.667 100.715 201.739 100.028 201.883C99.3421 202.016 98.7666 202.221 98.3018 202.498C97.8369 202.774 97.4827 203.123 97.2393 203.543C96.9958 203.953 96.874 204.434 96.874 204.988C96.874 205.552 97.0013 206.067 97.2559 206.532C97.5104 206.997 97.8923 207.367 98.4014 207.644C98.9215 207.91 99.5579 208.042 100.311 208.042C101.251 208.042 102.081 207.843 102.801 207.445C103.52 207.046 104.09 206.559 104.511 205.984C104.942 205.408 105.175 204.849 105.208 204.307L106.52 205.785C106.442 206.25 106.232 206.764 105.889 207.329C105.546 207.893 105.086 208.435 104.511 208.956C103.946 209.465 103.271 209.891 102.485 210.234C101.711 210.566 100.836 210.732 99.8623 210.732C98.6449 210.732 97.5768 210.494 96.6582 210.018C95.7507 209.542 95.0423 208.906 94.5332 208.109C94.0352 207.301 93.7861 206.399 93.7861 205.403C93.7861 204.44 93.9743 203.593 94.3506 202.863C94.7269 202.121 95.2692 201.507 95.9775 201.02C96.6859 200.522 97.5381 200.146 98.5342 199.891C99.5303 199.637 100.643 199.509 101.871 199.509H105.44ZM116.133 196.272V210.4H113.062V192.437H115.967L116.133 196.272ZM115.402 200.738L114.124 200.688C114.135 199.459 114.318 198.325 114.672 197.285C115.026 196.233 115.524 195.32 116.166 194.545C116.808 193.771 117.572 193.173 118.457 192.752C119.354 192.321 120.344 192.105 121.429 192.105C122.314 192.105 123.111 192.227 123.819 192.47C124.528 192.703 125.131 193.079 125.629 193.599C126.138 194.119 126.525 194.794 126.791 195.625C127.057 196.444 127.189 197.445 127.189 198.629V210.4H124.102V198.596C124.102 197.655 123.963 196.903 123.687 196.338C123.41 195.763 123.006 195.348 122.475 195.093C121.943 194.828 121.29 194.695 120.516 194.695C119.752 194.695 119.055 194.855 118.424 195.176C117.804 195.497 117.267 195.94 116.813 196.504C116.371 197.069 116.022 197.716 115.768 198.447C115.524 199.166 115.402 199.93 115.402 200.738ZM135.441 192.437V210.4H132.354V192.437H135.441ZM132.121 187.672C132.121 187.174 132.271 186.754 132.569 186.411C132.879 186.068 133.333 185.896 133.931 185.896C134.517 185.896 134.965 186.068 135.275 186.411C135.596 186.754 135.757 187.174 135.757 187.672C135.757 188.148 135.596 188.558 135.275 188.901C134.965 189.233 134.517 189.399 133.931 189.399C133.333 189.399 132.879 189.233 132.569 188.901C132.271 188.558 132.121 188.148 132.121 187.672ZM143.677 196.006V210.4H140.589V192.437H143.511L143.677 196.006ZM143.046 200.738L141.618 200.688C141.629 199.459 141.79 198.325 142.1 197.285C142.41 196.233 142.869 195.32 143.478 194.545C144.086 193.771 144.844 193.173 145.752 192.752C146.66 192.321 147.711 192.105 148.906 192.105C149.747 192.105 150.522 192.227 151.23 192.47C151.939 192.703 152.553 193.073 153.073 193.583C153.593 194.092 153.997 194.745 154.285 195.542C154.573 196.338 154.717 197.301 154.717 198.43V210.4H151.646V198.58C151.646 197.639 151.485 196.886 151.164 196.322C150.854 195.757 150.411 195.348 149.836 195.093C149.26 194.828 148.585 194.695 147.811 194.695C146.903 194.695 146.145 194.855 145.536 195.176C144.927 195.497 144.44 195.94 144.075 196.504C143.71 197.069 143.444 197.716 143.278 198.447C143.123 199.166 143.046 199.93 143.046 200.738ZM154.684 199.044L152.625 199.675C152.636 198.69 152.797 197.744 153.106 196.836C153.427 195.929 153.887 195.121 154.484 194.413C155.093 193.704 155.84 193.145 156.726 192.736C157.611 192.315 158.624 192.105 159.764 192.105C160.727 192.105 161.579 192.232 162.32 192.487C163.073 192.741 163.704 193.134 164.213 193.666C164.733 194.186 165.126 194.855 165.392 195.674C165.657 196.493 165.79 197.467 165.79 198.596V210.4H162.702V198.563C162.702 197.556 162.542 196.776 162.221 196.222C161.911 195.658 161.468 195.265 160.893 195.043C160.328 194.811 159.653 194.695 158.867 194.695C158.192 194.695 157.594 194.811 157.074 195.043C156.554 195.276 156.117 195.597 155.763 196.006C155.409 196.405 155.137 196.864 154.949 197.384C154.772 197.904 154.684 198.458 154.684 199.044ZM178.143 210.732C176.892 210.732 175.757 210.522 174.739 210.101C173.732 209.669 172.863 209.066 172.133 208.292C171.413 207.517 170.86 206.598 170.473 205.536C170.085 204.473 169.892 203.311 169.892 202.049V201.352C169.892 199.891 170.107 198.591 170.539 197.451C170.971 196.3 171.557 195.326 172.299 194.529C173.04 193.732 173.882 193.129 174.822 192.719C175.763 192.31 176.737 192.105 177.744 192.105C179.028 192.105 180.135 192.326 181.064 192.769C182.005 193.212 182.774 193.832 183.372 194.628C183.97 195.414 184.412 196.344 184.7 197.417C184.988 198.48 185.132 199.642 185.132 200.904V202.282H171.718V199.775H182.061V199.542C182.016 198.746 181.85 197.971 181.562 197.218C181.286 196.466 180.843 195.846 180.234 195.359C179.626 194.872 178.796 194.628 177.744 194.628C177.047 194.628 176.405 194.778 175.818 195.077C175.232 195.364 174.728 195.796 174.308 196.372C173.887 196.947 173.561 197.65 173.328 198.48C173.096 199.31 172.979 200.267 172.979 201.352V202.049C172.979 202.902 173.096 203.704 173.328 204.457C173.572 205.198 173.92 205.851 174.374 206.416C174.839 206.98 175.398 207.423 176.051 207.744C176.715 208.065 177.467 208.225 178.309 208.225C179.393 208.225 180.312 208.004 181.064 207.561C181.817 207.118 182.476 206.526 183.04 205.785L184.899 207.262C184.512 207.849 184.02 208.408 183.422 208.939C182.824 209.47 182.088 209.902 181.214 210.234C180.351 210.566 179.327 210.732 178.143 210.732Z" fill="white"/>
<path d="M121.978 39.0146C122.315 39.102 122.637 39.2354 122.952 39.3874C123.04 39.4289 123.04 39.4289 123.129 39.4713C124.579 40.1739 125.877 41.081 127.045 42.2282C127.218 42.3967 127.394 42.5579 127.573 42.719C127.934 43.0494 128.261 43.4057 128.585 43.7746C128.639 43.8355 128.693 43.8965 128.749 43.9592C129.055 44.3043 129.349 44.6557 129.633 45.0209C129.819 44.8125 130.005 44.6038 130.191 44.395C130.246 44.3338 130.3 44.2727 130.357 44.2097C130.686 43.8392 131.008 43.4649 131.315 43.0736C131.42 42.9642 131.42 42.9642 131.59 42.9642C131.618 42.8757 131.646 42.7872 131.675 42.696C131.797 42.5643 131.797 42.5643 131.957 42.4221C132.019 42.3672 132.081 42.3124 132.145 42.2558C132.215 42.1945 132.284 42.1332 132.356 42.07C132.469 41.967 132.469 41.967 132.584 41.8618C133.867 40.7031 135.591 39.341 137.292 39.0297C137.687 39.0645 137.856 39.2213 138.129 39.5135C138.206 39.5947 138.283 39.6759 138.361 39.7595C138.441 39.846 138.521 39.9324 138.601 40.0189C138.718 40.1437 138.718 40.1437 138.838 40.2709C139.275 40.7378 139.696 41.2148 140.101 41.7123C140.19 41.8189 140.279 41.9253 140.368 42.0316C140.945 42.723 141.5 43.4272 142.033 44.1559C142.14 44.3008 142.247 44.4449 142.355 44.5888C143.702 46.4041 144.956 48.3264 146.055 50.318C146.146 50.4811 146.24 50.6424 146.333 50.8037C147.965 53.6266 149.236 56.645 150.228 59.7755C150.256 59.8631 150.284 59.9507 150.313 60.041C150.977 62.1607 151.463 64.3618 151.76 66.5716C151.773 66.6644 151.786 66.7572 151.799 66.8528C152.194 69.8724 152.178 73.035 151.76 76.0503C151.738 76.2149 151.738 76.2149 151.715 76.3829C151.623 77.0481 151.525 77.7121 151.42 78.3753C151.478 78.3425 151.536 78.3097 151.596 78.276C155.738 75.948 160.172 74.4816 164.867 74.083C164.993 74.0716 164.993 74.0716 165.121 74.0599C170.1 73.6547 175.113 74.2732 179.93 75.6032C180.082 75.6448 180.082 75.6448 180.237 75.6873C182.662 76.3617 185.033 77.2387 187.343 78.2661C187.572 78.3676 187.803 78.4665 188.034 78.5643C188.941 78.9508 189.804 79.4007 190.662 79.8938C190.828 79.9873 190.996 80.0762 191.164 80.1637C191.302 83.4172 190.129 86.4948 188.537 89.2341C188.376 89.5119 188.235 89.7963 188.1 90.0896C188.15 90.1031 188.199 90.1166 188.25 90.1306C188.862 90.3095 189.419 90.5685 189.989 90.8608C190.082 90.9085 190.176 90.9561 190.272 91.0052C191.723 91.7535 192.985 92.6701 194.228 93.7559C194.278 93.7971 194.328 93.8384 194.379 93.8809C194.746 94.1854 195.036 94.5439 195.334 94.9183C195.398 94.9929 195.461 95.0675 195.527 95.1443C195.589 95.221 195.652 95.2977 195.717 95.3766C195.776 95.4469 195.835 95.5173 195.896 95.5897C196.055 95.8865 196.003 96.0215 195.93 96.3491C195.838 96.5826 195.838 96.5826 195.722 96.8182C195.678 96.9067 195.635 96.9952 195.59 97.0864C195.519 97.2277 195.519 97.2277 195.446 97.3719C195.396 97.4711 195.347 97.5703 195.295 97.6725C194.073 100.082 192.629 102.437 191.03 104.591C190.896 104.772 190.765 104.954 190.634 105.137C190.068 105.926 189.482 106.691 188.866 107.437C188.773 107.551 188.679 107.665 188.586 107.779C188.353 108.063 188.119 108.345 187.885 108.628C187.771 108.765 187.658 108.904 187.545 109.042C187.484 109.116 187.423 109.189 187.361 109.265C187.31 109.328 187.259 109.39 187.206 109.455C187.079 109.584 187.079 109.584 186.909 109.584C186.888 109.635 186.867 109.686 186.845 109.738C186.721 109.975 186.575 110.135 186.392 110.326C186.323 110.398 186.254 110.471 186.182 110.546C186.11 110.621 186.037 110.696 185.962 110.774C185.891 110.848 185.821 110.922 185.748 110.999C185.373 111.39 184.991 111.769 184.59 112.131C184.39 112.312 184.198 112.502 184.005 112.691C183.511 113.164 182.991 113.596 182.461 114.024C182.321 114.138 182.181 114.252 182.042 114.367C177.036 118.472 171.051 121.329 164.696 122.013C164.781 122.101 164.781 122.101 164.868 122.191C165.078 122.408 165.287 122.626 165.496 122.844C165.587 122.938 165.678 123.032 165.769 123.126C165.899 123.261 166.029 123.397 166.159 123.533C166.238 123.614 166.316 123.696 166.397 123.78C166.569 123.98 166.569 123.98 166.569 124.159C166.625 124.159 166.681 124.159 166.739 124.159C166.861 124.302 166.977 124.45 167.09 124.601C167.327 124.913 167.565 125.215 167.824 125.506C173.334 131.973 175.543 141.387 176.031 152.791C176.031 152.88 176.031 152.969 176.031 153.061C176.028 155.235 175.909 157.382 175.68 159.542C175.674 159.607 175.667 159.672 175.66 159.738C175.408 162.109 175.408 162.109 175.106 162.383C174.927 162.462 174.76 162.49 174.569 162.521C174.416 162.568 174.264 162.614 174.111 162.661C171.368 163.341 168.131 163.098 165.462 162.164C165.459 162.216 165.456 162.269 165.453 162.324C165.252 165.739 164.558 169.273 162.484 172C157.692 171.334 153.028 169.839 148.611 167.797C148.522 167.756 148.433 167.716 148.342 167.673C147.243 167.167 146.172 166.619 145.122 166.009C145.04 165.961 144.958 165.914 144.874 165.865C142.834 164.674 140.894 163.351 139.08 161.806C138.924 161.675 138.767 161.545 138.611 161.415C138.548 161.361 138.485 161.308 138.421 161.253C138.278 161.132 138.133 161.013 137.988 160.895C137.91 160.83 137.831 160.766 137.75 160.699C137.678 160.641 137.607 160.584 137.534 160.524C137.482 160.475 137.431 160.426 137.377 160.375C137.377 160.316 137.377 160.257 137.377 160.196C137.331 160.177 137.286 160.158 137.238 160.138C136.965 159.974 136.76 159.75 136.541 159.517C136.493 159.467 136.446 159.417 136.398 159.366C136.298 159.261 136.198 159.156 136.099 159.05C135.948 158.89 135.798 158.732 135.647 158.573C135.156 158.056 134.677 157.535 134.228 156.977C134.155 156.889 134.081 156.801 134.004 156.71C133.348 155.912 132.76 155.07 132.186 154.205C132.147 154.147 132.109 154.089 132.069 154.03C130.967 152.362 130.067 150.565 129.207 148.75C129.183 148.805 129.158 148.859 129.132 148.915C128.492 150.312 127.787 151.645 126.995 152.953C126.944 153.037 126.944 153.037 126.892 153.123C125.279 155.795 123.176 158.343 120.867 160.375C120.788 160.447 120.709 160.519 120.628 160.593C118.584 162.45 116.313 164.043 113.956 165.422C113.797 165.515 113.638 165.609 113.479 165.703C112.093 166.525 110.67 167.231 109.207 167.887C109.121 167.925 109.035 167.964 108.947 168.004C105.535 169.53 101.956 170.641 98.3192 171.385C98.256 171.398 98.1927 171.411 98.1275 171.424C97.4264 171.566 96.7294 171.684 96.016 171.732C95.4363 170.908 94.9732 170.07 94.5692 169.138C94.501 168.982 94.501 168.982 94.4313 168.822C93.5515 166.658 93.175 164.236 93.1225 161.895C93.0601 161.917 92.9978 161.939 92.9336 161.961C91.9375 162.285 90.9187 162.453 89.8884 162.611C89.8294 162.62 89.7704 162.63 89.7096 162.64C89.0784 162.73 88.4393 162.72 87.8035 162.722C87.599 162.722 87.3946 162.725 87.1902 162.728C85.9152 162.737 84.5175 162.623 83.3353 162.074C83.1593 161.797 83.128 161.662 83.083 161.339C83.0695 161.242 83.0559 161.146 83.042 161.047C83.0282 160.941 83.0144 160.836 83.0002 160.727C82.9783 160.562 82.9783 160.562 82.9559 160.393C81.9171 152.268 82.5107 143.944 86.2289 132.923C86.2586 132.852 86.2883 132.78 86.3189 132.707C87.4353 130.041 88.9807 127.56 90.7109 125.292C90.8239 125.144 90.936 124.995 91.048 124.846C91.1165 124.756 91.1849 124.666 91.2554 124.573C91.3161 124.493 91.3768 124.413 91.4393 124.33C91.4892 124.274 91.5391 124.217 91.5906 124.159C91.6467 124.159 91.7029 124.159 91.7608 124.159C91.7789 124.111 91.797 124.063 91.8157 124.013C91.9731 123.724 92.1887 123.509 92.413 123.278C92.4835 123.204 92.4835 123.204 92.5554 123.129C92.705 122.973 92.8552 122.817 93.0054 122.661C93.1072 122.555 93.2089 122.449 93.3106 122.343C93.5595 122.084 93.8089 121.825 94.0586 121.566C93.989 121.556 93.9195 121.546 93.8478 121.535C90.4667 121.028 87.1957 120.162 84.1013 118.615C83.9696 118.55 83.9696 118.55 83.8353 118.483C82.482 117.807 81.1933 117.049 79.9311 116.201C79.8709 116.161 79.8108 116.12 79.7489 116.079C78.4768 115.224 77.2534 114.275 76.1013 113.25C76.0106 113.17 75.9198 113.09 75.829 113.011C75.324 112.566 74.8268 112.113 74.3397 111.647C74.092 111.412 73.8379 111.186 73.5821 110.962C73.463 110.835 73.463 110.835 73.463 110.657C73.4069 110.657 73.3507 110.657 73.2928 110.657C73.2928 110.598 73.2928 110.539 73.2928 110.478C73.2469 110.459 73.2009 110.439 73.1535 110.42C72.88 110.255 72.6759 110.031 72.4577 109.796C72.4121 109.747 72.3665 109.699 72.3194 109.649C72.0346 109.343 71.7607 109.031 71.497 108.705C71.3252 108.498 71.1479 108.297 70.9694 108.097C70.4724 107.538 70.0004 106.964 69.5482 106.364C69.4938 106.292 69.4938 106.292 69.4382 106.219C69.1999 105.903 68.9632 105.586 68.7274 105.268C68.6183 105.121 68.5088 104.974 68.3993 104.828C66.4649 102.219 64.7306 99.3854 63.2716 96.4553C63.242 96.3981 63.2124 96.3409 63.1819 96.2819C63.0545 96.0184 62.9947 95.8296 63.0004 95.5324C63.156 95.0323 63.5143 94.6755 63.8461 94.2924C63.904 94.2247 63.904 94.2247 63.9632 94.1557C65.858 91.9731 68.3618 90.6871 70.9099 89.553C70.8838 89.5096 70.8578 89.4662 70.831 89.4215C69.4731 87.1415 68.2914 84.6456 67.9312 81.9522C67.9155 81.8391 67.8998 81.726 67.8836 81.6095C67.8379 81.2163 67.8365 80.8276 67.8407 80.432C67.8411 80.3627 67.8415 80.2934 67.8419 80.2221C67.8429 80.0536 67.8444 79.8851 67.8461 79.7166C74.3299 76.1493 81.6425 73.9605 89.8033 73.5465C89.8758 73.5446 89.9482 73.5426 90.0229 73.5406C96.2585 73.3958 102.399 74.8758 107.846 78.107C107.83 78.0449 107.815 77.9828 107.799 77.9188C106.379 71.8838 107.226 65.2321 109.122 59.4179C109.155 59.3176 109.188 59.2173 109.221 59.114C110.963 53.8415 113.687 48.96 116.952 44.5738C117.027 44.472 117.102 44.3701 117.177 44.2682C117.878 43.3171 118.623 42.4071 119.381 41.5055C119.506 41.3538 119.625 41.1983 119.745 41.0417C119.806 40.9679 119.867 40.8941 119.931 40.8181C119.987 40.8181 120.043 40.8181 120.101 40.8181C120.123 40.7663 120.145 40.7146 120.168 40.6612C120.357 40.294 120.646 40.0152 120.92 39.7171C120.979 39.6497 121.037 39.5823 121.097 39.5129C121.594 38.9759 121.594 38.9759 121.978 39.0146ZM128.083 78.2775C127.354 79.1743 127.191 80.3657 127.25 81.5051C127.369 82.5519 127.711 83.3667 128.441 84.0983C128.526 84.1573 128.61 84.2163 128.697 84.2771C128.717 84.5442 128.717 84.5442 128.701 84.8945C128.698 84.9909 128.698 84.9909 128.694 85.0892C128.685 85.3058 128.674 85.5222 128.663 85.7387C128.656 85.8935 128.65 86.0483 128.643 86.2032C128.625 86.6249 128.605 87.0465 128.585 87.4682C128.564 87.9098 128.545 88.3516 128.526 88.7933C128.489 89.6317 128.451 90.4701 128.412 91.3084C128.355 92.5347 128.3 93.7611 128.246 94.9875C128.242 95.0778 128.238 95.1681 128.233 95.261C128.225 95.4412 128.217 95.6213 128.209 95.8015C128.186 96.3266 128.162 96.8517 128.138 97.3767C128.123 97.7052 128.108 98.0338 128.093 98.3623C128.086 98.5135 128.079 98.6646 128.072 98.8158C128.031 99.6937 128.006 100.567 128.016 101.446C127.93 101.456 127.844 101.467 127.755 101.477C127.422 101.535 127.135 101.629 126.819 101.754C126.454 101.896 126.088 102.034 125.718 102.162C125.652 102.075 125.586 101.989 125.518 101.9C125.476 101.844 125.433 101.788 125.389 101.73C125.296 101.607 125.202 101.483 125.108 101.36C124.909 101.099 124.71 100.837 124.51 100.576C124.235 100.216 123.962 99.8545 123.692 99.491C123.312 98.9812 122.927 98.4763 122.537 97.9754C122.151 97.48 121.777 96.977 121.409 96.4665C121.077 96.0045 120.737 95.5534 120.378 95.114C120.302 95.0204 120.227 94.9268 120.151 94.8331C120.041 94.6954 119.929 94.5588 119.815 94.4242C119.178 93.6735 119.178 93.6735 119.146 93.2197C119.165 93.0403 119.19 92.8615 119.219 92.6835C119.312 91.8709 118.938 91.0812 118.484 90.4472C117.979 89.8234 117.497 89.4166 116.745 89.2009C116.246 89.1917 115.834 89.3061 115.468 89.6704C115.13 90.2818 115.09 90.8247 115.261 91.5035C115.578 92.5284 116.178 93.339 117.083 93.8488C117.316 93.9445 117.523 93.9697 117.771 93.9962C118.036 94.0397 118.185 94.0657 118.373 94.2713C118.415 94.3403 118.457 94.4092 118.5 94.4803C118.551 94.5612 118.601 94.642 118.653 94.7253C118.71 94.8185 118.766 94.9117 118.824 95.0078C118.891 95.1146 118.958 95.2212 119.026 95.3277C119.253 95.6877 119.477 96.0491 119.702 96.4106C119.854 96.655 120.006 96.8994 120.158 97.1438C120.196 97.2048 120.235 97.2659 120.274 97.3288C120.553 97.7762 120.834 98.2217 121.117 98.6665C121.605 99.4335 122.088 100.203 122.572 100.973C122.685 101.152 122.797 101.332 122.91 101.511C123.075 101.773 123.24 102.035 123.404 102.297C123.455 102.377 123.505 102.457 123.557 102.539C123.604 102.614 123.65 102.688 123.698 102.765C123.76 102.862 123.76 102.862 123.822 102.962C123.926 103.138 124.016 103.316 124.101 103.503C124.043 103.574 123.986 103.645 123.927 103.719C123.85 103.814 123.773 103.91 123.697 104.006C123.659 104.053 123.621 104.099 123.582 104.147C123.335 104.456 123.117 104.773 122.909 105.112C121.162 104.636 119.421 104.137 117.682 103.627C116.339 103.234 114.996 102.843 113.652 102.455C113.538 102.422 113.538 102.422 113.421 102.388C112.656 102.167 111.891 101.946 111.125 101.726C110.837 101.643 110.549 101.559 110.261 101.476C110.001 101.401 109.741 101.326 109.481 101.252C109.361 101.217 109.242 101.182 109.123 101.147C108.838 101.063 108.555 100.984 108.268 100.912C108.161 100.884 108.054 100.856 107.944 100.827C107.85 100.803 107.756 100.78 107.659 100.756C107.268 100.568 107.171 100.236 107.018 99.8341C106.693 99.0343 105.864 98.5665 105.128 98.2493C104.148 97.8984 103.048 97.7813 102.088 98.2469C101.702 98.4701 101.36 98.6863 101.17 99.117C101.035 99.6384 101.044 100.17 101.261 100.664C101.325 100.778 101.392 100.89 101.463 100.999C101.497 101.052 101.531 101.105 101.566 101.16C102.234 102.077 103.334 102.552 104.388 102.732C105.324 102.842 106.034 102.696 106.824 102.162C106.995 102.072 106.995 102.072 107.194 102.131C107.321 102.181 107.321 102.181 107.45 102.231C107.547 102.269 107.644 102.307 107.744 102.346C107.852 102.388 107.961 102.431 108.069 102.474C108.184 102.52 108.3 102.565 108.415 102.61C108.729 102.732 109.042 102.856 109.355 102.98C109.605 103.078 109.855 103.176 110.104 103.274C110.964 103.611 111.823 103.951 112.683 104.29C112.973 104.405 113.264 104.52 113.554 104.635C114.159 104.874 114.764 105.114 115.368 105.353C115.537 105.42 115.705 105.486 115.873 105.553C117.004 106 118.134 106.449 119.262 106.904C119.347 106.938 119.431 106.972 119.519 107.007C119.909 107.164 120.299 107.322 120.689 107.48C120.824 107.535 120.959 107.589 121.094 107.644C121.154 107.669 121.214 107.693 121.277 107.719C121.522 107.818 121.708 107.885 121.973 107.885C121.959 107.934 121.946 107.983 121.931 108.034C121.884 108.264 121.877 108.47 121.877 108.705C121.877 108.838 121.877 108.838 121.877 108.974C121.877 109.066 121.877 109.159 121.878 109.254C121.877 109.345 121.877 109.436 121.877 109.53C121.877 109.619 121.877 109.709 121.877 109.8C121.877 109.921 121.877 109.921 121.877 110.045C121.89 110.342 121.93 110.631 121.973 110.925C121.88 110.961 121.787 110.997 121.691 111.035C120.123 111.647 118.555 112.259 116.989 112.877C116.71 112.988 116.43 113.098 116.151 113.207C115.52 113.455 114.891 113.704 114.263 113.959C113.986 114.071 113.709 114.182 113.432 114.294C113.301 114.346 113.171 114.399 113.041 114.453C112.862 114.527 112.683 114.598 112.504 114.67C112.403 114.711 112.302 114.752 112.199 114.794C111.89 114.869 111.78 114.836 111.505 114.681C110.712 114.286 109.812 114.281 108.984 114.588C108.238 114.93 107.573 115.385 107.25 116.201C107.183 116.642 107.185 117.056 107.415 117.441C107.786 117.897 108.2 118.053 108.761 118.112C109.811 118.162 110.685 117.887 111.505 117.184C111.781 116.909 111.988 116.69 112.072 116.293C112.186 116.022 112.186 116.022 112.426 115.894C112.584 115.849 112.584 115.849 112.745 115.804C112.836 115.777 112.836 115.777 112.929 115.75C113.138 115.69 113.348 115.632 113.558 115.575C113.71 115.532 113.861 115.488 114.012 115.445C114.372 115.342 114.731 115.24 115.091 115.139C115.82 114.933 116.546 114.72 117.273 114.506C117.816 114.347 118.359 114.188 118.903 114.03C119.216 113.938 119.53 113.846 119.843 113.754C120.218 113.645 120.593 113.535 120.968 113.427C121.109 113.386 121.25 113.345 121.39 113.304C121.584 113.247 121.778 113.191 121.972 113.135C122.029 113.118 122.086 113.101 122.145 113.083C122.42 113.005 122.547 112.974 122.824 113.071C122.965 113.273 122.965 113.273 123.112 113.529C123.28 113.822 123.453 114.107 123.643 114.385C123.681 114.44 123.719 114.496 123.758 114.553C123.787 114.595 123.816 114.637 123.846 114.681C123.502 115.23 123.158 115.78 122.814 116.329C122.762 116.412 122.71 116.494 122.657 116.579C121.873 117.831 121.086 119.08 120.292 120.324C119.923 120.903 119.559 121.485 119.201 122.072C118.85 122.649 118.493 123.221 118.135 123.793C118.021 123.974 117.908 124.156 117.795 124.337C117.72 124.458 117.645 124.578 117.569 124.698C117.532 124.757 117.496 124.817 117.457 124.877C117.271 125.175 117.083 125.473 116.894 125.769C116.433 126.489 116.433 126.489 116.004 127.229C115.411 128.291 115.411 128.291 114.972 128.485C114.691 128.519 114.691 128.519 114.413 128.525C113.696 128.568 112.998 129.161 112.527 129.703C111.78 130.676 111.346 131.62 111.388 132.898C111.442 133.392 111.558 133.79 111.904 134.141C112.386 134.525 112.867 134.6 113.463 134.532C114.455 134.268 115.307 133.557 115.846 132.654C116.353 131.71 116.755 130.7 116.477 129.597C116.462 129.541 116.446 129.486 116.431 129.43C116.448 128.868 116.821 128.55 117.167 128.153C117.378 127.903 117.571 127.638 117.766 127.373C118.044 126.998 118.324 126.627 118.612 126.261C118.934 125.85 119.247 125.432 119.559 125.013C119.864 124.603 120.176 124.199 120.489 123.796C120.827 123.361 121.16 122.923 121.484 122.477C121.8 122.042 122.124 121.618 122.456 121.196C122.674 120.914 122.888 120.629 123.101 120.342C123.489 119.82 123.885 119.306 124.284 118.793C124.634 118.341 124.978 117.885 125.319 117.425C125.559 117.101 125.807 116.784 126.058 116.469C126.529 116.552 126.966 116.733 127.413 116.902C127.678 116.992 127.93 117.03 128.208 117.057C128.284 117.064 128.359 117.071 128.438 117.079C128.495 117.084 128.552 117.09 128.612 117.095C128.613 117.143 128.615 117.192 128.616 117.242C128.685 119.369 128.757 121.496 128.85 123.622C128.854 123.722 128.854 123.722 128.859 123.824C128.887 124.482 128.917 125.14 128.946 125.797C128.955 125.984 128.963 126.17 128.971 126.356C128.982 126.584 128.992 126.812 129.002 127.04C129.015 127.331 129.027 127.623 129.037 127.915C129.043 128.046 129.043 128.046 129.048 128.18C129.05 128.26 129.052 128.341 129.054 128.423C129.058 128.527 129.058 128.527 129.061 128.634C129.037 128.809 129.037 128.809 128.808 129.038C128.762 129.071 128.716 129.104 128.668 129.138C128.191 129.538 128.002 130.254 127.931 130.866C127.849 131.795 128.023 132.714 128.555 133.473C128.858 133.826 129.18 134.01 129.638 134.04C130.161 133.971 130.431 133.727 130.755 133.308C131.302 132.481 131.346 131.578 131.25 130.598C131.119 129.914 130.82 129.356 130.314 128.899C130.257 128.899 130.201 128.899 130.143 128.899C130.146 128.841 130.149 128.783 130.151 128.723C130.215 127.31 130.279 125.897 130.343 124.484C130.374 123.801 130.405 123.118 130.436 122.435C130.463 121.839 130.49 121.243 130.517 120.648C130.531 120.333 130.545 120.017 130.559 119.702C130.576 119.35 130.591 118.998 130.607 118.645C130.614 118.489 130.614 118.489 130.622 118.33C130.626 118.233 130.63 118.137 130.635 118.038C130.64 117.913 130.64 117.913 130.646 117.785C130.655 117.525 130.655 117.266 130.654 117.006C130.807 116.997 130.807 116.997 130.963 116.989C131.449 116.934 131.882 116.755 132.336 116.572C132.572 116.484 132.791 116.422 133.037 116.38C133.645 117.123 134.232 117.88 134.805 118.654C135.144 119.11 135.49 119.56 135.839 120.008C136.318 120.622 136.788 121.24 137.244 121.873C137.67 122.464 138.111 123.038 138.561 123.608C138.908 124.047 139.247 124.493 139.581 124.943C139.877 125.342 140.179 125.735 140.484 126.127C140.877 126.633 141.266 127.141 141.646 127.657C141.821 127.894 141.997 128.122 142.186 128.345C142.654 128.905 142.654 128.905 142.654 129.329C142.64 129.386 142.627 129.444 142.613 129.503C142.382 130.554 142.668 131.546 143.181 132.448C143.804 133.412 144.585 134.143 145.691 134.398C146.184 134.469 146.565 134.437 146.989 134.154C147.337 133.869 147.589 133.565 147.675 133.101C147.796 131.829 147.468 130.805 146.739 129.793C146.206 129.147 145.589 128.567 144.782 128.362C144.634 128.368 144.486 128.373 144.338 128.379C144.014 128.349 143.883 128.31 143.645 128.071C143.446 127.784 143.268 127.488 143.095 127.183C143.029 127.072 142.963 126.961 142.896 126.851C142.762 126.627 142.629 126.402 142.498 126.176C142.29 125.817 142.075 125.462 141.86 125.108C141.764 124.951 141.669 124.794 141.575 124.637C141.152 123.935 140.714 123.243 140.274 122.552C139.8 121.809 139.331 121.063 138.867 120.314C138.404 119.569 137.939 118.826 137.469 118.086C137.373 117.935 137.277 117.784 137.182 117.633C136.894 117.178 136.604 116.724 136.307 116.276C136.208 116.127 136.11 115.977 136.012 115.827C135.889 115.641 135.766 115.455 135.641 115.271C135.56 115.146 135.56 115.146 135.477 115.019C135.405 114.911 135.405 114.911 135.331 114.801C135.25 114.591 135.25 114.591 135.312 114.355C135.431 114.122 135.564 113.911 135.713 113.697C135.913 113.406 136.097 113.112 136.271 112.803C137.622 113.116 138.949 113.516 140.279 113.915C140.604 114.012 140.928 114.109 141.253 114.206C141.308 114.222 141.362 114.238 141.418 114.255C142.22 114.494 143.025 114.716 143.834 114.929C144.131 115.009 144.428 115.089 144.725 115.169C144.914 115.219 145.103 115.268 145.293 115.315C146.766 115.683 146.766 115.683 147.13 116.089C147.255 116.333 147.336 116.565 147.42 116.827C148.013 117.568 148.946 117.913 149.837 118.012C150.451 118.043 151.065 117.9 151.57 117.518C151.856 117.232 151.945 116.951 151.968 116.547C151.958 115.939 151.649 115.543 151.248 115.129C150.54 114.502 149.646 114.198 148.721 114.207C148.228 114.274 147.746 114.482 147.335 114.77C147.125 114.715 146.939 114.651 146.738 114.569C146.645 114.533 146.645 114.533 146.549 114.496C146.337 114.413 146.126 114.329 145.915 114.245C145.763 114.185 145.612 114.126 145.461 114.067C145.119 113.933 144.777 113.798 144.436 113.662C143.835 113.424 143.233 113.188 142.632 112.951C141.311 112.432 139.991 111.912 138.671 111.39C138.127 111.175 137.582 110.961 137.037 110.746C137.037 109.772 137.037 108.798 137.037 107.795C139.979 106.627 142.921 105.46 145.872 104.317C146.809 103.953 147.745 103.588 148.679 103.217C148.774 103.179 148.869 103.141 148.967 103.102C149.421 102.923 149.874 102.742 150.327 102.561C150.487 102.497 150.648 102.434 150.808 102.37C150.88 102.341 150.952 102.312 151.027 102.282C151.383 102.141 151.719 102.019 152.101 101.983C152.273 102.065 152.273 102.065 152.425 102.189C153.112 102.683 153.924 102.699 154.722 102.547C155.781 102.307 156.883 101.864 157.511 100.879C157.783 100.375 157.934 99.9807 157.888 99.3894C157.7 98.7748 157.331 98.3495 156.792 98.0481C155.792 97.6067 154.659 97.7553 153.675 98.1711C153.324 98.3383 153.004 98.5172 152.696 98.7635C152.612 98.8262 152.528 98.8889 152.441 98.9535C151.982 99.363 151.696 99.938 151.59 100.552C151.506 100.574 151.423 100.595 151.336 100.618C150.546 100.823 149.76 101.04 148.976 101.267C148.857 101.301 148.738 101.335 148.619 101.369C148.366 101.442 148.112 101.515 147.859 101.589C147.455 101.705 147.051 101.822 146.647 101.938C145.223 102.349 143.799 102.761 142.375 103.173C142.141 103.241 141.908 103.308 141.674 103.376C141.598 103.398 141.522 103.42 141.443 103.443C141.29 103.487 141.137 103.531 140.985 103.575C140.539 103.704 140.093 103.833 139.648 103.963C139.368 104.044 139.088 104.125 138.809 104.206C138.68 104.243 138.551 104.28 138.423 104.318C137.567 104.566 136.708 104.801 135.845 105.023C135.82 104.953 135.794 104.884 135.768 104.812C135.675 104.574 135.567 104.395 135.42 104.19C135.376 104.128 135.332 104.066 135.287 104.001C135.247 103.955 135.206 103.908 135.165 103.861C135.108 103.861 135.052 103.861 134.994 103.861C134.925 103.681 134.925 103.681 134.909 103.413C135.023 103.157 135.18 102.934 135.337 102.705C135.432 102.56 135.527 102.415 135.622 102.271C135.673 102.195 135.723 102.118 135.775 102.04C136.037 101.642 136.288 101.237 136.54 100.833C136.646 100.665 136.751 100.497 136.856 100.329C136.963 100.159 137.069 99.9896 137.175 99.8198C137.967 98.5559 138.759 97.2925 139.564 96.0375C139.699 95.8268 139.834 95.6159 139.968 95.405C140.037 95.2982 140.105 95.1915 140.174 95.0849C140.275 94.9275 140.376 94.7698 140.476 94.612C140.535 94.5203 140.594 94.4286 140.655 94.3342C140.796 94.131 140.796 94.131 140.782 93.9347C140.887 93.9458 140.992 93.9568 141.101 93.9682C141.772 93.9671 142.402 93.5882 142.893 93.1243C143.568 92.347 143.874 91.4688 143.864 90.4396C143.832 89.9836 143.692 89.7412 143.377 89.4357C143.011 89.1758 142.66 89.1401 142.228 89.1953C141.639 89.3746 141.211 89.7304 140.782 90.179C140.735 90.2247 140.689 90.2705 140.641 90.3177C140.106 90.895 139.822 91.7044 139.814 92.5039C139.823 92.7481 139.838 92.9314 139.921 93.1606C139.937 93.5587 139.677 93.7812 139.436 94.0688C139.333 94.1967 139.23 94.3246 139.127 94.4527C139.076 94.5162 139.024 94.5796 138.971 94.645C138.765 94.903 138.571 95.1694 138.377 95.4381C137.999 95.9605 137.605 96.4685 137.207 96.975C136.589 97.7639 135.985 98.5606 135.398 99.3754C135.075 99.8211 134.739 100.25 134.391 100.674C134.001 101.152 133.645 101.653 133.292 102.162C132.919 102.102 132.594 101.959 132.25 101.804C131.769 101.593 131.351 101.466 130.824 101.446C130.825 101.381 130.826 101.315 130.826 101.247C130.831 100.397 130.8 99.5518 130.763 98.703C130.757 98.5473 130.75 98.3917 130.743 98.236C130.726 97.8168 130.708 97.3977 130.69 96.9786C130.674 96.628 130.66 96.2775 130.645 95.927C130.609 95.1008 130.574 94.2746 130.538 93.4484C130.501 92.596 130.465 91.7436 130.429 90.8912C130.398 90.1581 130.366 89.4251 130.335 88.6921C130.316 88.2548 130.297 87.8174 130.279 87.38C130.261 86.9697 130.243 86.5594 130.225 86.1491C130.219 85.9984 130.213 85.8477 130.206 85.697C130.198 85.4917 130.189 85.2865 130.18 85.0813C130.175 84.9663 130.17 84.8514 130.165 84.7329C130.154 84.4529 130.154 84.4529 130.058 84.1877C130.118 84.1711 130.178 84.1545 130.239 84.1374C130.784 83.8511 131.132 83.2577 131.335 82.6675C131.684 81.3352 131.714 80.0865 131.101 78.8224C130.724 78.1604 130.32 77.828 129.617 77.6103C129.058 77.4664 128.47 77.8953 128.083 78.2775Z" fill="white"/>
</svg>
